# xmcd CD database file
#
# Track frame offsets:
#	150
#	16889
#	38136
#	58489
#	80268
#	94532
#	111535
#	130926
#	149230
#	166421
#	183879
#	203828
#
# Disc length: 3032 seconds
#
# Revision: 0
# Processed by: cddbd v1.5PL3 Copyright (c) Steve Scherf et al.
# Submitted via: CDex 1.51
#
DISCID=aa0bd60c
DTITLE=Shakatak - Shinin' On
DYEAR=1900
DGENRE=Fusion
TTITLE0=Space Dance
TTITLE1=Haze
TTITLE2=Walk In The Night
TTITLE3=Fly By Night
TTITLE4=Chase The Sun
TTITLE5=Blue Azure
TTITLE6=Catwalk
TTITLE7=Street Level
TTITLE8=Can't Stop Running
TTITLE9=Paradise Island
TTITLE10=Sleepin' Alone
TTITLE11=Ocean Sway
EXTD=
EXTT0=
EXTT1=
EXTT2=
EXTT3=
EXTT4=
EXTT5=
EXTT6=
EXTT7=
EXTT8=
EXTT9=
EXTT10=
EXTT11=
PLAYORDER=
